<?xml version="1.0" encoding="utf-8"?>
<svg xmlns="http://www.w3.org/2000/svg" width="157" height="157" class="segno"><path class="qrline" stroke="#000" d="M4 4.5h7m2 0h3m2 0h2m2 0h1m2 0h4m1 0h3m3 0h1m1 0h1m1 0h3m2 0h3m2 0h3m1 0h2m3 0h1m5 0h1m1 0h2m1 0h3m1 0h5m3 0h3m2 0h1m2 0h1m2 0h4m1 0h1m2 0h2m1 0h1m2 0h2m5 0h2m2 0h4m3 0h1m1 0h6m3 0h1m3 0h1m5 0h7m-149 1h1m5 0h1m1 0h3m2 0h1m2 0h1m5 0h2m2 0h1m1 0h2m1 0h3m1 0h2m1 0h2m3 0h3m1 0h2m5 0h1m2 0h7m4 0h1m1 0h1m3 0h3m3 0h2m2 0h1m1 0h2m1 0h1m4 0h6m1 0h2m4 0h2m5 0h1m1 0h2m4 0h1m3 0h6m4 0h2m1 0h2m1 0h1m5 0h1m-149 1h1m1 0h3m1 0h1m2 0h5m1 0h2m6 0h1m4 0h3m5 0h6m5 0h6m1 0h2m1 0h2m2 0h1m1 0h1m5 0h1m2 0h1m1 0h1m1 0h1m2 0h4m1 0h1m1 0h1m2 0h2m1 0h1m4 0h1m3 0h2m1 0h1m3 0h2m1 0h1m6 0h1m2 0h1m1 0h1m4 0h3m1 0h4m2 0h2m2 0h1m1 0h3m1 0h1m-149 1h1m1 0h3m1 0h1m1 0h5m7 0h2m1 0h1m1 0h1m2 0h1m2 0h1m3 0h1m1 0h1m2 0h4m3 0h1m3 0h4m1 0h2m1 0h1m2 0h5m1 0h5m1 0h2m1 0h2m1 0h3m2 0h1m1 0h3m1 0h1m1 0h4m1 0h1m1 0h2m3 0h1m1 0h1m4 0h2m1 0h4m2 0h1m1 0h1m2 0h1m1 0h2m1 0h3m1 0h2m1 0h2m2 0h1m1 0h3m1 0h1m-149 1h1m1 0h3m1 0h1m6 0h1m1 0h2m2 0h1m2 0h1m1 0h1m2 0h8m1 0h1m1 0h1m2 0h1m1 0h1m1 0h2m1 0h3m2 0h2m1 0h5m3 0h3m1 0h1m5 0h3m2 0h1m3 0h12m6 0h2m1 0h1m1 0h1m5 0h5m5 0h1m5 0h1m1 0h4m1 0h1m2 0h1m3 0h1m1 0h3m1 0h1m-149 1h1m5 0h1m1 0h1m4 0h3m2 0h1m3 0h1m1 0h1m1 0h1m1 0h1m3 0h1m2 0h1m4 0h1m1 0h6m2 0h1m5 0h1m3 0h1m2 0h1m2 0h1m1 0h3m1 0h1m2 0h4m3 0h3m3 0h2m5 0h3m7 0h1m1 0h2m3 0h1m3 0h2m4 0h1m1 0h1m3 0h2m1 0h2m2 0h2m3 0h1m1 0h1m5 0h1m-149 1h7m1 0h1m1 0h1m1 0h1m1 0h1m1 0h1m1 0h1m1 0h1m1 0h1m1 0h1m1 0h1m1 0h1m1 0h1m1 0h1m1 0h1m1 0h1m1 0h1m1 0h1m1 0h1m1 0h1m1 0h1m1 0h1m1 0h1m1 0h1m1 0h1m1 0h1m1 0h1m1 0h1m1 0h1m1 0h1m1 0h1m1 0h1m1 0h1m1 0h1m1 0h1m1 0h1m1 0h1m1 0h1m1 0h1m1 0h1m1 0h1m1 0h1m1 0h1m1 0h1m1 0h1m1 0h1m1 0h1m1 0h1m1 0h1m1 0h1m1 0h1m1 0h1m1 0h1m1 0h1m1 0h1m1 0h1m1 0h1m1 0h1m1 0h1m1 0h1m1 0h1m1 0h1m1 0h1m1 0h1m1 0h1m1 0h1m1 0h1m1 0h1m1 0h7m-140 1h4m1 0h1m5 0h1m1 0h1m1 0h1m1 0h1m1 0h1m3 0h1m2 0h1m2 0h2m1 0h2m2 0h2m1 0h2m1 0h2m2 0h2m3 0h1m1 0h3m1 0h1m1 0h4m6 0h2m1 0h1m2 0h1m3 0h3m4 0h1m1 0h1m3 0h2m5 0h2m1 0h2m3 0h1m5 0h3m3 0h1m4 0h4m3 0h1m-141 1h5m1 0h4m2 0h4m1 0h2m5 0h1m1 0h7m4 0h1m2 0h5m2 0h1m1 0h1m2 0h1m1 0h9m2 0h2m1 0h3m1 0h4m1 0h1m5 0h6m2 0h1m2 0h5m1 0h1m2 0h1m3 0h13m6 0h1m1 0h3m1 0h1m2 0h1m2 0h1m1 0h2m1 0h1m1 0h1m1 0h1m-147 1h3m3 0h1m1 0h1m1 0h1m1 0h1m1 0h1m1 0h1m4 0h3m8 0h1m2 0h1m2 0h1m2 0h1m2 0h1m1 0h2m4 0h1m3 0h2m1 0h2m2 0h2m1 0h3m1 0h1m2 0h1m1 0h2m1 0h4m3 0h1m2 0h3m2 0h1m4 0h2m3 0h1m1 0h2m3 0h2m1 0h2m1 0h1m2 0h1m1 0h4m2 0h10m1 0h2m1 0h4m2 0h1m-149 1h1m2 0h1m1 0h2m1 0h1m5 0h2m4 0h2m1 0h1m1 0h1m5 0h2m7 0h3m1 0h5m1 0h1m6 0h4m1 0h2m1 0h1m2 0h1m1 0h1m4 0h1m1 0h2m3 0h1m2 0h2m2 0h1m1 0h1m3 0h3m5 0h1m1 0h1m2 0h1m1 0h1m2 0h2m1 0h4m4 0h1m1 0h2m1 0h1m1 0h1m2 0h1m5 0h1m1 0h1m3 0h1m-146 1h1m1 0h2m2 0h2m1 0h1m2 0h1m1 0h3m3 0h2m1 0h1m1 0h1m1 0h2m8 0h1m3 0h1m2 0h1m1 0h2m1 0h2m1 0h3m3 0h2m1 0h1m2 0h2m1 0h4m4 0h1m1 0h1m2 0h4m1 0h2m2 0h2m3 0h3m2 0h4m3 0h1m1 0h1m2 0h1m1 0h1m1 0h1m3 0h4m1 0h1m2 0h1m1 0h1m2 0h1m1 0h1m3 0h4m1 0h2m2 0h1m-148 1h1m1 0h1m2 0h1m1 0h3m3 0h1m3 0h6m1 0h3m1 0h1m2 0h1m2 0h3m1 0h4m1 0h1m2 0h1m1 0h1m3 0h5m3 0h1m1 0h2m8 0h1m1 0h1m3 0h1m2 0h1m1 0h3m2 0h1m1 0h3m2 0h3m3 0h1m3 0h2m1 0h1m3 0h2m1 0h1m1 0h1m1 0h4m2 0h1m1 0h2m1 0h1m1 0h3m2 0h1m5 0h1m1 0h1m-146 1h1m1 0h2m3 0h2m2 0h1m3 0h1m1 0h3m3 0h1m4 0h1m3 0h4m8 0h5m8 0h1m2 0h4m1 0h9m1 0h2m2 0h1m1 0h1m12 0h1m1 0h2m1 0h2m1 0h2m1 0h2m2 0h1m3 0h4m5 0h5m1 0h1m2 0h3m1 0h2m2 0h1m2 0h2m1 0h3m-147 1h3m1 0h1m3 0h1m1 0h5m3 0h3m1 0h3m2 0h1m1 0h1m1 0h1m1 0h1m1 0h4m5 0h2m3 0h2m1 0h2m1 0h2m1 0h1m2 0h2m1 0h1m3 0h1m4 0h4m2 0h2m2 0h1m1 0h4m5 0h2m1 0h1m2 0h1m2 0h1m2 0h1m2 0h2m3 0h2m1 0h1m2 0h1m1 0h1m1 0h6m7 0h1m5 0h1m-146 1h1m3 0h1m3 0h1m2 0h1m4 0h1m2 0h1m1 0h4m1 0h1m1 0h1m3 0h1m2 0h3m1 0h1m4 0h2m2 0h2m1 0h4m2 0h1m2 0h1m1 0h2m2 0h5m1 0h1m2 0h1m2 0h2m1 0h3m1 0h1m1 0h4m1 0h2m1 0h1m1 0h1m3 0h4m4 0h1m5 0h1m1 0h2m3 0h2m4 0h1m1 0h1m1 0h1m1 0h2m1 0h2m1 0h1m1 0h1m1 0h1m-145 1h1m1 0h2m1 0h3m4 0h2m2 0h1m2 0h1m1 0h4m2 0h2m2 0h1m5 0h1m1 0h1m1 0h2m2 0h1m1 0h1m1 0h1m1 0h1m1 0h3m1 0h3m1 0h3m1 0h2m1 0h1m1 0h4m1 0h3m4 0h1m1 0h2m2 0h1m2 0h1m2 0h1m2 0h1m5 0h1m4 0h2m3 0h1m4 0h1m2 0h1m4 0h1m2 0h1m1 0h1m2 0h1m5 0h1m2 0h4m-147 1h3m2 0h1m1 0h2m3 0h3m2 0h3m3 0h1m2 0h3m3 0h5m5 0h2m2 0h4m3 0h2m3 0h1m3 0h1m1 0h2m1 0h2m5 0h1m4 0h2m3 0h3m2 0h1m3 0h2m1 0h1m6 0h2m2 0h1m4 0h1m1 0h1m1 0h1m1 0h1m1 0h2m4 0h1m3 0h1m6 0h2m2 0h4m1 0h3m-148 1h4m1 0h4m10 0h3m1 0h1m2 0h1m1 0h2m3 0h4m3 0h1m3 0h1m1 0h2m1 0h1m1 0h1m2 0h1m1 0h1m4 0h2m2 0h1m1 0h1m1 0h1m2 0h3m1 0h1m2 0h1m2 0h3m3 0h1m1 0h1m2 0h3m1 0h1m2 0h2m2 0h1m1 0h4m1 0h2m2 0h2m1 0h1m2 0h1m1 0h1m1 0h2m1 0h1m1 0h2m1 0h1m1 0h1m1 0h2m4 0h3m-147 1h3m5 0h1m2 0h1m2 0h1m1 0h1m2 0h2m5 0h1m3 0h10m1 0h2m2 0h3m3 0h1m2 0h2m2 0h1m3 0h1m5 0h1m3 0h1m1 0h2m2 0h1m1 0h2m1 0h1m1 0h1m4 0h1m2 0h1m1 0h3m1 0h2m1 0h1m1 0h1m2 0h2m3 0h1m1 0h1m3 0h1m2 0h4m3 0h1m1 0h1m1 0h1m1 0h2m4 0h1m1 0h4m1 0h1m-144 1h1m1 0h1m2 0h2m1 0h2m2 0h3m1 0h4m2 0h1m1 0h2m1 0h2m1 0h2m1 0h1m4 0h2m3 0h3m3 0h10m2 0h2m2 0h3m1 0h6m3 0h1m4 0h1m1 0h1m2 0h1m1 0h4m3 0h1m2 0h3m2 0h2m5 0h2m2 0h5m1 0h3m1 0h1m1 0h1m4 0h2m1 0h1m5 0h1m-147 1h5m2 0h7m1 0h5m2 0h2m3 0h1m1 0h2m2 0h1m1 0h4m4 0h1m1 0h1m1 0h2m2 0h1m2 0h1m3 0h1m2 0h4m1 0h4m1 0h2m3 0h2m2 0h1m2 0h2m1 0h1m2 0h3m1 0h3m3 0h2m1 0h1m1 0h1m1 0h2m1 0h1m5 0h3m1 0h2m7 0h1m4 0h2m1 0h5m2 0h2m1 0h1m1 0h1m-149 1h2m3 0h4m2 0h2m1 0h1m2 0h1m1 0h1m1 0h1m2 0h1m8 0h1m6 0h1m6 0h3m5 0h1m1 0h1m4 0h2m1 0h1m4 0h1m3 0h2m1 0h1m2 0h2m3 0h1m3 0h1m1 0h1m3 0h3m3 0h3m1 0h5m1 0h2m1 0h1m1 0h3m3 0h3m1 0h1m1 0h2m1 0h1m4 0h1m2 0h1m2 0h6m-147 1h1m2 0h1m2 0h1m1 0h1m1 0h3m1 0h2m5 0h1m1 0h2m1 0h2m1 0h1m1 0h1m1 0h1m1 0h6m1 0h1m1 0h2m4 0h1m3 0h1m1 0h2m1 0h1m2 0h1m2 0h1m2 0h1m1 0h1m2 0h1m4 0h1m1 0h1m1 0h3m1 0h2m1 0h3m2 0h3m1 0h1m1 0h2m1 0h1m2 0h1m1 0h1m2 0h1m4 0h2m2 0h3m1 0h2m1 0h3m1 0h1m1 0h2m1 0h1m1 0h2m1 0h4m2 0h1m-149 1h7m1 0h1m1 0h3m1 0h1m2 0h3m3 0h3m2 0h1m1 0h1m4 0h1m1 0h1m1 0h1m1 0h4m2 0h1m1 0h1m1 0h1m1 0h5m3 0h2m1 0h1m2 0h4m2 0h3m1 0h2m1 0h1m1 0h1m1 0h2m2 0h2m1 0h1m1 0h1m1 0h2m4 0h2m2 0h1m5 0h1m3 0h1m1 0h4m1 0h1m7 0h1m3 0h2m2 0h1m1 0h1m2 0h1m1 0h4m-148 1h2m1 0h2m2 0h1m1 0h2m4 0h2m4 0h1m1 0h3m5 0h1m1 0h3m4 0h3m4 0h1m1 0h1m2 0h3m4 0h1m1 0h1m2 0h1m1 0h1m1 0h1m1 0h1m1 0h2m2 0h1m1 0h2m2 0h3m1 0h1m2 0h4m1 0h1m2 0h3m3 0h1m1 0h3m2 0h8m1 0h2m1 0h2m1 0h3m4 0h4m4 0h1m1 0h2m-145 1h2m3 0h2m1 0h3m4 0h1m1 0h2m3 0h1m2 0h4m1 0h1m2 0h6m1 0h2m1 0h1m1 0h1m4 0h2m1 0h1m2 0h1m1 0h1m4 0h2m1 0h1m1 0h1m1 0h1m2 0h6m2 0h1m4 0h2m2 0h2m1 0h2m1 0h1m9 0h4m3 0h2m2 0h1m10 0h4m2 0h3m1 0h1m1 0h3m1 0h1m-142 1h3m2 0h2m1 0h3m2 0h2m1 0h3m2 0h2m1 0h2m6 0h2m1 0h1m3 0h2m5 0h1m4 0h2m2 0h1m1 0h1m2 0h1m2 0h1m2 0h1m3 0h1m1 0h1m2 0h2m1 0h1m1 0h1m1 0h1m1 0h4m1 0h2m1 0h1m1 0h1m1 0h1m1 0h2m4 0h3m1 0h1m2 0h5m2 0h3m6 0h1m1 0h6m1 0h2m6 0h1m-148 1h1m1 0h1m1 0h5m2 0h1m1 0h1m7 0h1m1 0h1m2 0h1m1 0h5m2 0h4m1 0h3m4 0h3m3 0h9m1 0h5m1 0h2m1 0h1m1 0h1m4 0h2m1 0h1m1 0h8m2 0h1m6 0h1m1 0h1m1 0h1m2 0h2m2 0h6m1 0h2m2 0h3m3 0h1m2 0h1m1 0h1m1 0h1m1 0h1m1 0h8m-146 1h3m3 0h7m2 0h1m3 0h3m1 0h4m3 0h1m2 0h2m2 0h1m1 0h1m1 0h1m4 0h2m3 0h4m3 0h1m1 0h3m2 0h1m1 0h1m1 0h1m1 0h1m3 0h1m2 0h2m2 0h1m3 0h3m2 0h1m2 0h1m2 0h1m4 0h1m5 0h3m3 0h4m4 0h1m1 0h3m1 0h2m1 0h1m1 0h2m1 0h3m3 0h1m1 0h3m-149 1h5m1 0h1m1 0h3m7 0h1m1 0h1m3 0h5m1 0h1m1 0h4m1 0h1m3 0h3m3 0h3m1 0h1m2 0h1m1 0h1m1 0h1m1 0h1m2 0h1m2 0h1m3 0h1m1 0h1m1 0h3m3 0h1m1 0h3m1 0h1m1 0h4m1 0h5m3 0h3m1 0h1m1 0h2m1 0h3m1 0h1m1 0h2m5 0h2m1 0h4m1 0h1m6 0h1m1 0h1m1 0h1m1 0h1m-141 1h1m3 0h2m1 0h3m4 0h1m3 0h1m3 0h3m3 0h2m2 0h5m3 0h3m1 0h7m1 0h1m3 0h1m2 0h2m2 0h6m1 0h3m4 0h1m1 0h2m3 0h3m6 0h1m1 0h4m1 0h1m4 0h1m2 0h1m3 0h3m2 0h4m5 0h1m3 0h2m1 0h1m1 0h2m3 0h2m1 0h2m-149 1h3m1 0h6m1 0h1m3 0h3m1 0h1m1 0h2m3 0h8m3 0h1m2 0h3m2 0h1m1 0h2m2 0h2m1 0h1m1 0h6m1 0h1m1 0h1m2 0h4m2 0h2m1 0h1m1 0h2m1 0h1m1 0h8m3 0h2m2 0h1m1 0h1m1 0h1m1 0h1m3 0h1m1 0h6m1 0h1m1 0h1m1 0h2m1 0h5m1 0h3m1 0h1m1 0h1m2 0h6m1 0h1m-147 1h2m4 0h1m1 0h1m1 0h2m4 0h1m3 0h2m1 0h1m1 0h3m1 0h2m2 0h1m1 0h1m2 0h1m3 0h1m2 0h5m2 0h1m2 0h1m2 0h1m2 0h1m1 0h1m1 0h2m2 0h4m2 0h2m1 0h2m1 0h4m2 0h1m1 0h1m1 0h3m3 0h1m1 0h3m1 0h1m1 0h1m3 0h2m1 0h2m1 0h2m1 0h1m3 0h2m3 0h1m6 0h3m1 0h1m3 0h3m1 0h2m-148 1h1m2 0h5m1 0h2m2 0h2m1 0h2m2 0h7m1 0h3m4 0h3m1 0h2m1 0h4m1 0h2m4 0h1m1 0h3m1 0h7m2 0h2m1 0h2m1 0h1m1 0h1m2 0h1m1 0h1m1 0h2m1 0h1m5 0h2m1 0h1m1 0h2m3 0h1m1 0h5m1 0h2m2 0h1m1 0h1m1 0h1m4 0h1m1 0h2m1 0h1m6 0h1m1 0h2m1 0h4m1 0h1m-145 1h1m4 0h2m4 0h2m1 0h1m1 0h3m2 0h1m4 0h1m1 0h2m4 0h1m6 0h2m1 0h1m2 0h1m1 0h4m4 0h1m3 0h1m3 0h1m1 0h3m3 0h1m1 0h3m1 0h1m1 0h2m3 0h1m1 0h3m4 0h1m1 0h4m1 0h1m4 0h1m1 0h3m2 0h1m5 0h2m9 0h1m1 0h1m1 0h1m1 0h1m3 0h3m2 0h1m-149 1h2m2 0h3m2 0h1m2 0h1m1 0h4m1 0h1m4 0h2m2 0h1m1 0h3m4 0h1m1 0h1m1 0h1m1 0h1m4 0h2m1 0h1m1 0h4m1 0h2m2 0h2m1 0h1m1 0h2m3 0h1m1 0h2m4 0h3m1 0h1m1 0h1m2 0h1m1 0h1m2 0h1m1 0h3m1 0h1m1 0h1m9 0h1m4 0h2m1 0h1m6 0h1m1 0h1m4 0h3m1 0h1m3 0h5m1 0h1m-142 1h2m4 0h1m2 0h2m2 0h3m4 0h1m1 0h1m2 0h6m4 0h1m4 0h2m4 0h1m2 0h2m1 0h1m1 0h1m2 0h1m2 0h1m2 0h2m1 0h1m1 0h4m2 0h3m1 0h1m8 0h1m1 0h2m3 0h1m1 0h3m4 0h4m2 0h5m1 0h1m1 0h1m1 0h2m2 0h1m4 0h2m1 0h1m1 0h1m2 0h1m1 0h2m1 0h1m-149 1h1m1 0h1m1 0h1m1 0h1m1 0h1m2 0h2m1 0h5m3 0h1m1 0h2m1 0h1m2 0h3m1 0h3m1 0h4m1 0h1m1 0h1m2 0h3m1 0h1m1 0h1m1 0h1m3 0h1m2 0h3m3 0h1m4 0h2m2 0h1m1 0h1m1 0h3m1 0h1m2 0h1m1 0h1m2 0h4m4 0h2m2 0h3m1 0h3m3 0h2m1 0h1m2 0h1m3 0h1m1 0h2m1 0h2m5 0h1m3 0h5m-143 1h1m2 0h1m2 0h2m2 0h1m1 0h1m3 0h5m1 0h1m1 0h3m3 0h1m1 0h1m2 0h2m4 0h2m2 0h1m3 0h1m2 0h1m1 0h3m1 0h2m5 0h1m5 0h1m5 0h4m2 0h6m3 0h1m4 0h3m3 0h3m1 0h2m1 0h1m1 0h1m3 0h1m1 0h5m1 0h3m3 0h2m1 0h1m1 0h1m2 0h1m2 0h1m1 0h2m-146 1h1m1 0h2m2 0h1m3 0h1m1 0h3m1 0h1m3 0h3m3 0h1m1 0h1m5 0h1m1 0h2m1 0h1m1 0h1m2 0h1m1 0h1m2 0h3m1 0h6m1 0h3m1 0h1m4 0h2m3 0h2m3 0h3m2 0h2m4 0h1m3 0h2m2 0h2m3 0h1m1 0h5m5 0h2m3 0h1m1 0h1m1 0h3m4 0h3m5 0h3m2 0h1m-148 1h1m2 0h1m1 0h1m3 0h1m1 0h3m2 0h3m6 0h1m2 0h1m1 0h9m2 0h1m1 0h1m1 0h2m1 0h1m5 0h4m4 0h5m1 0h1m1 0h1m2 0h4m2 0h2m1 0h1m1 0h2m2 0h2m1 0h1m2 0h1m1 0h2m3 0h1m6 0h3m1 0h2m3 0h1m3 0h1m1 0h6m1 0h1m3 0h1m2 0h1m1 0h1m3 0h3m-145 1h10m1 0h3m1 0h3m1 0h1m1 0h4m1 0h2m2 0h1m1 0h1m1 0h1m3 0h1m6 0h2m1 0h1m2 0h1m7 0h2m1 0h4m2 0h2m2 0h1m1 0h3m4 0h5m3 0h2m3 0h4m3 0h2m2 0h3m1 0h3m1 0h2m1 0h1m1 0h1m2 0h1m1 0h1m1 0h1m1 0h3m4 0h2m2 0h1m2 0h4m-145 1h1m1 0h2m2 0h3m1 0h1m1 0h1m4 0h3m1 0h1m1 0h2m7 0h3m1 0h1m1 0h2m3 0h3m1 0h1m1 0h2m3 0h2m1 0h1m1 0h1m2 0h1m4 0h2m1 0h2m1 0h1m1 0h1m2 0h2m6 0h4m1 0h1m2 0h3m1 0h5m5 0h1m1 0h1m1 0h1m2 0h1m1 0h1m2 0h1m1 0h2m4 0h2m1 0h2m1 0h3m2 0h3m2 0h1m-146 1h1m1 0h2m1 0h4m1 0h1m4 0h3m1 0h7m3 0h2m2 0h1m3 0h1m3 0h2m1 0h1m1 0h4m1 0h1m1 0h2m2 0h1m1 0h2m1 0h3m5 0h1m1 0h1m1 0h3m4 0h5m3 0h2m1 0h1m6 0h1m1 0h1m2 0h1m1 0h1m2 0h1m1 0h2m1 0h1m5 0h1m1 0h2m5 0h1m1 0h1m2 0h2m1 0h2m2 0h1m1 0h2m2 0h2m-149 1h1m1 0h1m1 0h2m2 0h1m4 0h2m1 0h3m1 0h3m2 0h1m1 0h1m1 0h1m1 0h1m2 0h6m1 0h3m1 0h1m1 0h2m4 0h5m4 0h3m1 0h4m3 0h3m4 0h1m2 0h2m2 0h10m3 0h1m3 0h2m5 0h2m3 0h1m2 0h1m2 0h2m4 0h2m2 0h2m2 0h2m1 0h2m2 0h1m1 0h1m2 0h1m-149 1h2m3 0h2m3 0h2m1 0h1m1 0h2m1 0h1m1 0h3m4 0h2m1 0h1m1 0h3m1 0h2m6 0h2m1 0h2m4 0h1m2 0h1m1 0h1m1 0h5m4 0h1m2 0h5m3 0h2m1 0h2m1 0h1m2 0h3m3 0h2m1 0h1m2 0h1m1 0h1m1 0h5m2 0h3m1 0h4m2 0h1m1 0h1m1 0h1m1 0h2m1 0h1m4 0h1m2 0h1m2 0h3m2 0h1m-146 1h2m3 0h2m1 0h4m1 0h2m1 0h2m2 0h2m1 0h3m2 0h2m4 0h4m3 0h2m2 0h1m1 0h4m1 0h1m1 0h2m1 0h2m2 0h1m2 0h1m1 0h3m3 0h2m3 0h1m1 0h5m1 0h1m1 0h2m4 0h3m1 0h1m1 0h3m3 0h3m1 0h1m1 0h1m2 0h1m3 0h2m1 0h3m2 0h1m1 0h1m2 0h3m6 0h2m1 0h1m1 0h2m-144 1h3m6 0h2m4 0h3m2 0h1m2 0h3m1 0h1m2 0h1m1 0h1m1 0h4m4 0h3m2 0h1m1 0h2m1 0h1m1 0h2m1 0h1m2 0h2m1 0h1m1 0h1m3 0h3m5 0h2m1 0h2m5 0h5m4 0h1m1 0h2m1 0h1m4 0h1m3 0h1m1 0h2m2 0h6m1 0h2m3 0h1m4 0h4m2 0h1m1 0h2m-146 1h1m1 0h1m2 0h1m3 0h1m2 0h1m1 0h2m1 0h2m3 0h1m1 0h1m2 0h2m5 0h1m5 0h2m1 0h6m2 0h1m1 0h4m5 0h3m1 0h1m2 0h1m2 0h1m4 0h1m2 0h1m1 0h2m2 0h3m2 0h1m1 0h4m1 0h1m2 0h2m5 0h1m1 0h2m2 0h1m1 0h3m2 0h5m2 0h1m1 0h1m2 0h1m1 0h1m2 0h1m3 0h2m1 0h1m-148 1h1m3 0h9m2 0h1m1 0h1m2 0h2m3 0h7m1 0h2m1 0h1m1 0h1m5 0h1m2 0h1m1 0h3m2 0h1m1 0h1m1 0h1m2 0h5m3 0h1m3 0h1m1 0h1m5 0h1m1 0h3m1 0h1m3 0h1m1 0h1m1 0h4m2 0h1m1 0h1m3 0h3m4 0h2m1 0h2m4 0h2m1 0h6m2 0h3m2 0h1m1 0h1m1 0h3m-146 1h1m1 0h1m2 0h1m2 0h2m1 0h1m1 0h1m1 0h3m1 0h6m1 0h1m1 0h2m1 0h2m2 0h1m1 0h1m3 0h3m3 0h2m1 0h3m3 0h4m2 0h1m1 0h1m3 0h4m3 0h2m4 0h2m1 0h1m4 0h3m1 0h1m1 0h3m2 0h3m1 0h1m2 0h1m1 0h1m1 0h2m3 0h3m2 0h3m1 0h2m1 0h3m3 0h4m4 0h1m2 0h1m2 0h1m-146 1h2m1 0h2m3 0h1m1 0h1m2 0h1m1 0h3m1 0h1m1 0h3m2 0h3m3 0h3m3 0h2m4 0h1m1 0h2m1 0h3m2 0h2m1 0h5m5 0h1m3 0h1m2 0h2m5 0h1m4 0h1m2 0h1m1 0h1m4 0h1m3 0h1m1 0h2m1 0h3m9 0h3m2 0h1m2 0h4m1 0h1m1 0h1m2 0h2m1 0h1m-142 1h1m2 0h2m6 0h2m1 0h1m1 0h4m1 0h4m1 0h1m2 0h1m3 0h2m1 0h2m3 0h1m1 0h1m1 0h1m1 0h2m4 0h2m1 0h2m1 0h1m2 0h4m2 0h2m2 0h1m1 0h9m2 0h1m1 0h3m2 0h2m2 0h1m2 0h1m1 0h2m5 0h1m2 0h1m1 0h2m3 0h1m1 0h1m1 0h1m2 0h2m1 0h3m1 0h3m3 0h4m1 0h5m-148 1h1m1 0h1m2 0h2m3 0h3m4 0h1m2 0h1m4 0h1m1 0h1m1 0h1m2 0h1m1 0h3m2 0h1m1 0h1m1 0h3m4 0h2m2 0h1m3 0h1m2 0h4m1 0h1m1 0h2m5 0h2m3 0h1m1 0h3m1 0h1m7 0h5m2 0h3m1 0h1m1 0h3m1 0h2m3 0h2m4 0h1m4 0h3m1 0h1m2 0h3m1 0h1m3 0h3m-145 1h3m2 0h1m2 0h5m1 0h1m1 0h1m3 0h1m3 0h1m1 0h1m2 0h3m2 0h1m1 0h1m1 0h4m1 0h1m2 0h2m2 0h2m1 0h2m1 0h2m2 0h1m1 0h1m6 0h2m1 0h1m1 0h1m3 0h1m1 0h2m1 0h1m2 0h3m1 0h2m1 0h1m3 0h1m1 0h4m5 0h2m1 0h2m1 0h1m3 0h1m1 0h7m1 0h3m3 0h2m1 0h1m1 0h3m1 0h2m-144 1h2m1 0h5m4 0h2m3 0h2m2 0h3m1 0h7m2 0h1m3 0h1m1 0h2m1 0h1m3 0h2m2 0h3m1 0h5m1 0h1m1 0h2m2 0h1m1 0h1m2 0h1m2 0h1m4 0h2m1 0h6m4 0h1m3 0h1m7 0h1m1 0h1m1 0h1m1 0h9m1 0h4m1 0h1m3 0h4m2 0h10m-147 1h1m2 0h2m3 0h2m1 0h1m4 0h3m5 0h5m3 0h3m1 0h1m1 0h1m4 0h1m1 0h1m1 0h2m1 0h2m3 0h2m3 0h1m2 0h3m1 0h1m1 0h3m5 0h1m2 0h1m1 0h1m1 0h1m3 0h1m1 0h3m4 0h1m1 0h2m1 0h1m1 0h2m2 0h2m1 0h2m3 0h1m1 0h6m1 0h1m1 0h1m1 0h2m6 0h4m3 0h3m1 0h1m-149 1h5m1 0h1m1 0h1m5 0h2m3 0h1m1 0h1m2 0h2m1 0h2m1 0h1m1 0h4m1 0h1m1 0h1m3 0h2m2 0h2m4 0h1m1 0h2m1 0h1m1 0h2m1 0h2m4 0h1m2 0h2m1 0h1m1 0h2m1 0h2m1 0h2m1 0h1m1 0h1m1 0h2m1 0h4m1 0h1m2 0h3m2 0h3m1 0h3m1 0h1m1 0h4m2 0h1m1 0h1m3 0h4m2 0h3m1 0h3m1 0h1m1 0h1m2 0h1m-148 1h5m3 0h1m1 0h1m1 0h4m1 0h1m2 0h3m1 0h1m2 0h2m3 0h3m3 0h4m1 0h2m3 0h1m1 0h2m3 0h2m3 0h1m1 0h2m5 0h1m9 0h1m1 0h1m2 0h1m3 0h1m1 0h3m4 0h1m3 0h4m2 0h3m2 0h1m3 0h3m2 0h1m1 0h3m3 0h2m1 0h4m1 0h2m1 0h1m3 0h2m1 0h2m-148 1h8m2 0h2m2 0h1m3 0h1m1 0h2m1 0h2m2 0h5m4 0h1m3 0h2m2 0h1m2 0h1m3 0h2m2 0h6m1 0h1m1 0h1m2 0h1m1 0h1m1 0h2m1 0h2m3 0h9m1 0h1m1 0h2m1 0h2m2 0h1m5 0h2m4 0h6m2 0h2m1 0h2m1 0h3m1 0h2m2 0h1m5 0h6m-144 1h1m7 0h1m2 0h3m1 0h1m1 0h5m2 0h2m1 0h2m4 0h4m3 0h3m2 0h5m3 0h1m1 0h1m1 0h2m2 0h1m1 0h1m5 0h1m2 0h1m2 0h2m2 0h2m2 0h1m2 0h1m2 0h1m2 0h2m1 0h2m2 0h1m1 0h1m2 0h2m2 0h1m4 0h1m2 0h3m4 0h1m1 0h3m6 0h1m5 0h1m1 0h1m-144 1h2m2 0h3m2 0h3m2 0h4m1 0h1m3 0h1m1 0h1m1 0h1m3 0h4m1 0h1m5 0h1m2 0h4m2 0h5m1 0h2m1 0h2m1 0h2m3 0h1m1 0h1m2 0h1m1 0h1m2 0h1m3 0h2m1 0h1m5 0h1m2 0h3m1 0h2m1 0h1m1 0h1m1 0h1m1 0h2m1 0h1m2 0h1m2 0h2m4 0h1m3 0h1m1 0h2m1 0h2m1 0h1m1 0h1m2 0h1m1 0h1m2 0h2m-144 1h1m2 0h1m1 0h1m1 0h1m1 0h2m1 0h2m2 0h1m2 0h1m3 0h1m1 0h1m1 0h2m1 0h1m1 0h6m1 0h1m8 0h2m1 0h1m1 0h4m7 0h1m2 0h1m1 0h1m2 0h1m4 0h1m1 0h1m2 0h2m4 0h4m1 0h1m1 0h1m1 0h5m3 0h3m4 0h1m1 0h3m2 0h4m5 0h1m2 0h7m2 0h4m2 0h1m-149 1h1m2 0h9m2 0h1m1 0h3m1 0h2m2 0h1m1 0h1m3 0h2m4 0h2m1 0h1m1 0h2m4 0h3m2 0h3m5 0h2m2 0h2m2 0h1m2 0h4m1 0h1m2 0h4m4 0h3m1 0h2m1 0h3m1 0h2m1 0h2m2 0h2m3 0h1m6 0h1m3 0h1m2 0h1m1 0h3m2 0h1m2 0h1m2 0h7m-143 1h1m2 0h2m5 0h2m1 0h1m1 0h1m2 0h1m3 0h2m1 0h3m1 0h2m2 0h4m4 0h2m1 0h1m1 0h2m1 0h2m2 0h3m6 0h2m2 0h1m1 0h1m6 0h2m2 0h2m3 0h1m1 0h1m2 0h1m1 0h3m5 0h1m2 0h1m6 0h1m3 0h3m4 0h1m3 0h1m5 0h1m1 0h2m1 0h1m3 0h1m2 0h3m1 0h1m-148 1h1m1 0h2m1 0h3m1 0h1m2 0h1m2 0h3m4 0h6m1 0h6m1 0h2m3 0h2m1 0h3m1 0h1m1 0h4m3 0h3m1 0h1m1 0h1m5 0h2m1 0h1m2 0h2m1 0h1m1 0h1m2 0h1m1 0h1m2 0h4m1 0h1m1 0h2m2 0h1m1 0h1m1 0h1m1 0h5m2 0h2m2 0h2m1 0h1m4 0h1m1 0h7m1 0h3m1 0h3m2 0h1m1 0h2m-147 1h2m1 0h1m1 0h1m2 0h2m4 0h1m1 0h1m1 0h2m1 0h1m1 0h2m2 0h1m1 0h1m1 0h1m1 0h1m2 0h2m3 0h3m3 0h3m1 0h1m1 0h1m1 0h4m7 0h2m1 0h3m2 0h1m4 0h1m1 0h1m3 0h1m4 0h3m2 0h3m1 0h6m3 0h2m2 0h5m1 0h1m3 0h2m4 0h1m1 0h1m1 0h1m1 0h5m1 0h1m1 0h1m1 0h2m1 0h2m-147 1h3m1 0h2m1 0h2m1 0h1m1 0h2m1 0h2m3 0h1m2 0h1m2 0h3m4 0h3m1 0h4m1 0h1m2 0h1m1 0h1m2 0h4m1 0h1m1 0h1m2 0h1m1 0h1m3 0h3m1 0h2m5 0h2m2 0h3m3 0h1m1 0h2m3 0h1m1 0h3m5 0h4m1 0h2m1 0h1m1 0h2m1 0h3m5 0h2m1 0h1m1 0h3m1 0h2m2 0h3m3 0h3m-149 1h1m1 0h2m11 0h1m4 0h1m1 0h2m2 0h1m2 0h1m1 0h7m5 0h1m1 0h1m2 0h1m4 0h1m1 0h3m1 0h5m1 0h3m3 0h1m2 0h3m1 0h1m1 0h3m1 0h1m1 0h3m2 0h1m4 0h1m1 0h5m2 0h3m2 0h1m3 0h1m14 0h2m2 0h1m1 0h1m2 0h1m2 0h1m2 0h2m1 0h2m-149 1h4m2 0h5m4 0h1m2 0h1m1 0h1m3 0h3m1 0h1m3 0h2m3 0h1m1 0h2m2 0h2m2 0h1m2 0h4m2 0h2m1 0h1m1 0h1m1 0h3m2 0h2m5 0h4m1 0h3m1 0h2m2 0h4m1 0h4m5 0h2m1 0h1m2 0h2m1 0h1m1 0h1m3 0h1m1 0h2m1 0h1m1 0h1m2 0h6m3 0h1m3 0h1m4 0h2m-147 1h1m1 0h2m1 0h1m5 0h1m1 0h1m1 0h2m3 0h3m1 0h1m1 0h3m2 0h1m2 0h3m2 0h1m1 0h3m1 0h2m1 0h5m1 0h1m1 0h1m5 0h2m4 0h2m4 0h1m1 0h1m1 0h1m1 0h2m1 0h2m2 0h1m2 0h3m2 0h1m1 0h1m2 0h3m1 0h1m3 0h2m3 0h1m1 0h4m3 0h4m4 0h1m3 0h3m2 0h6m2 0h2m-148 1h1m1 0h2m1 0h1m2 0h1m4 0h2m1 0h1m5 0h2m1 0h3m1 0h2m4 0h2m1 0h2m1 0h3m4 0h1m1 0h1m2 0h2m1 0h2m3 0h4m2 0h3m1 0h3m2 0h2m2 0h3m4 0h2m1 0h1m2 0h1m1 0h2m1 0h1m3 0h1m5 0h2m2 0h2m4 0h4m1 0h1m2 0h1m2 0h3m1 0h1m1 0h1m2 0h1m1 0h1m1 0h4m-145 1h1m1 0h1m2 0h1m4 0h3m2 0h1m1 0h1m1 0h3m2 0h3m1 0h1m1 0h1m1 0h5m2 0h1m1 0h1m2 0h5m2 0h1m2 0h2m1 0h1m2 0h1m1 0h4m1 0h1m1 0h1m4 0h1m3 0h1m1 0h1m2 0h1m3 0h2m2 0h3m1 0h1m1 0h1m1 0h4m5 0h1m3 0h2m1 0h1m3 0h1m1 0h3m2 0h4m2 0h2m1 0h1m3 0h1m1 0h3m-145 1h1m3 0h6m5 0h5m4 0h2m7 0h3m1 0h1m2 0h4m1 0h1m1 0h2m1 0h1m1 0h3m1 0h2m4 0h1m1 0h2m2 0h2m1 0h2m1 0h3m4 0h1m2 0h1m1 0h1m1 0h1m1 0h1m2 0h5m8 0h2m1 0h4m2 0h4m2 0h3m3 0h2m1 0h1m4 0h1m1 0h1m1 0h1m7 0h1m-149 1h1m1 0h2m3 0h2m1 0h1m2 0h1m1 0h8m1 0h2m3 0h3m1 0h1m2 0h3m1 0h4m2 0h1m1 0h1m6 0h1m1 0h2m3 0h2m3 0h1m1 0h2m5 0h1m1 0h1m1 0h4m2 0h1m2 0h3m4 0h2m1 0h2m1 0h1m2 0h1m1 0h3m4 0h1m1 0h1m3 0h1m1 0h2m1 0h2m1 0h1m1 0h1m3 0h4m2 0h3m1 0h2m2 0h1m-149 1h1m1 0h1m1 0h3m2 0h6m2 0h2m2 0h1m2 0h1m1 0h1m1 0h2m1 0h3m3 0h1m3 0h3m3 0h1m1 0h1m1 0h1m1 0h3m1 0h2m1 0h1m2 0h1m1 0h2m1 0h1m3 0h4m1 0h1m1 0h2m1 0h3m1 0h1m3 0h1m1 0h1m1 0h1m6 0h1m1 0h1m2 0h1m2 0h1m2 0h1m1 0h1m1 0h1m2 0h1m3 0h1m1 0h2m1 0h1m2 0h5m1 0h3m2 0h1m2 0h1m-145 1h1m2 0h2m1 0h1m1 0h3m1 0h1m2 0h1m4 0h2m1 0h3m1 0h1m3 0h1m1 0h1m1 0h1m1 0h1m2 0h3m1 0h1m2 0h1m12 0h4m3 0h1m1 0h2m3 0h2m2 0h1m4 0h2m1 0h1m2 0h2m1 0h2m3 0h2m1 0h1m1 0h2m2 0h1m1 0h1m6 0h2m2 0h1m1 0h1m1 0h3m2 0h1m1 0h2m1 0h1m1 0h1m1 0h1m1 0h5m3 0h1m-146 1h1m1 0h2m2 0h1m4 0h2m1 0h1m3 0h2m4 0h4m2 0h1m3 0h4m3 0h2m1 0h1m2 0h8m1 0h1m1 0h3m1 0h2m1 0h2m2 0h1m1 0h2m2 0h1m1 0h2m1 0h1m1 0h1m3 0h3m1 0h4m1 0h1m4 0h1m4 0h1m3 0h1m3 0h4m4 0h1m2 0h3m1 0h1m2 0h1m9 0h3m-147 1h3m1 0h1m2 0h1m1 0h3m2 0h6m2 0h2m1 0h1m3 0h1m1 0h1m4 0h1m1 0h1m1 0h2m1 0h2m1 0h2m2 0h3m1 0h1m1 0h1m3 0h1m2 0h2m2 0h4m3 0h1m3 0h1m2 0h2m2 0h1m1 0h1m1 0h3m3 0h1m5 0h2m1 0h1m2 0h1m3 0h2m1 0h2m2 0h1m2 0h4m3 0h1m1 0h1m1 0h1m1 0h3m3 0h1m2 0h3m1 0h2m-149 1h2m1 0h5m4 0h2m1 0h1m2 0h2m7 0h1m8 0h2m1 0h1m1 0h5m2 0h2m3 0h3m2 0h3m1 0h2m4 0h1m1 0h1m3 0h3m3 0h1m2 0h1m1 0h1m4 0h4m1 0h1m2 0h1m1 0h1m2 0h1m1 0h1m3 0h3m1 0h1m3 0h4m2 0h3m2 0h2m3 0h1m1 0h2m2 0h3m3 0h2m-146 1h1m1 0h1m3 0h2m1 0h2m3 0h2m5 0h3m2 0h1m2 0h1m1 0h1m2 0h2m6 0h1m2 0h4m5 0h1m1 0h1m4 0h1m1 0h1m1 0h5m4 0h2m1 0h2m1 0h2m4 0h1m5 0h2m4 0h1m3 0h3m2 0h1m5 0h1m4 0h1m2 0h5m3 0h1m4 0h3m4 0h1m1 0h3m1 0h1m-148 1h1m2 0h1m1 0h1m4 0h1m1 0h1m3 0h3m1 0h1m5 0h4m2 0h2m3 0h1m2 0h1m1 0h1m2 0h2m1 0h1m1 0h2m1 0h1m2 0h2m2 0h1m1 0h2m1 0h1m1 0h1m6 0h2m3 0h2m3 0h1m4 0h2m1 0h1m1 0h2m4 0h1m1 0h1m2 0h7m3 0h4m6 0h1m1 0h2m1 0h1m2 0h3m1 0h3m4 0h1m-145 1h1m3 0h1m1 0h1m3 0h3m3 0h3m1 0h1m3 0h1m2 0h2m2 0h1m1 0h3m2 0h4m3 0h3m2 0h4m2 0h2m1 0h1m6 0h4m1 0h1m1 0h1m1 0h1m1 0h1m1 0h3m3 0h1m3 0h1m1 0h1m4 0h1m2 0h5m2 0h3m5 0h4m2 0h6m1 0h3m3 0h3m2 0h1m2 0h4m1 0h2m-147 1h8m1 0h6m3 0h3m5 0h5m2 0h1m1 0h1m1 0h2m1 0h2m4 0h2m3 0h12m1 0h1m1 0h1m1 0h1m1 0h4m1 0h1m2 0h10m1 0h1m3 0h2m3 0h1m1 0h1m2 0h1m1 0h2m3 0h7m1 0h1m2 0h1m1 0h1m4 0h2m2 0h2m4 0h5m2 0h1m-144 1h1m3 0h4m1 0h2m2 0h1m1 0h2m2 0h1m2 0h1m1 0h1m3 0h1m1 0h1m1 0h1m1 0h1m2 0h1m1 0h1m3 0h2m1 0h1m2 0h2m1 0h1m3 0h1m1 0h1m4 0h1m3 0h1m2 0h1m1 0h2m1 0h6m3 0h1m7 0h1m2 0h1m1 0h2m2 0h2m1 0h2m2 0h1m3 0h1m2 0h1m1 0h2m1 0h2m1 0h1m4 0h1m1 0h2m1 0h1m1 0h2m3 0h2m-146 1h2m1 0h2m1 0h1m1 0h2m2 0h1m1 0h2m2 0h1m4 0h1m2 0h3m1 0h1m1 0h2m1 0h3m1 0h2m1 0h1m4 0h1m4 0h1m1 0h3m1 0h1m1 0h4m1 0h1m3 0h2m1 0h1m2 0h2m1 0h1m1 0h3m1 0h1m1 0h1m1 0h1m2 0h1m1 0h5m3 0h1m1 0h1m1 0h1m1 0h6m1 0h1m1 0h4m2 0h1m1 0h1m1 0h1m1 0h2m4 0h3m3 0h1m1 0h1m1 0h1m1 0h1m-147 1h1m3 0h1m3 0h1m2 0h2m1 0h2m2 0h2m1 0h1m1 0h1m1 0h2m1 0h1m3 0h1m1 0h1m1 0h1m1 0h4m1 0h7m2 0h1m1 0h3m3 0h1m2 0h1m4 0h2m2 0h1m2 0h2m1 0h2m1 0h2m1 0h1m3 0h3m1 0h2m1 0h3m1 0h6m3 0h2m1 0h2m3 0h1m5 0h2m4 0h1m1 0h1m1 0h1m1 0h2m1 0h1m1 0h2m3 0h1m2 0h1m-145 1h10m1 0h4m1 0h4m1 0h2m2 0h5m2 0h3m1 0h6m4 0h1m1 0h12m1 0h1m4 0h2m1 0h1m1 0h3m2 0h4m1 0h5m5 0h1m3 0h1m2 0h1m3 0h2m1 0h1m1 0h7m1 0h1m1 0h1m4 0h1m1 0h1m1 0h2m1 0h2m1 0h1m1 0h1m2 0h9m-149 1h3m7 0h5m1 0h5m3 0h3m1 0h4m3 0h2m1 0h1m4 0h1m3 0h4m3 0h1m2 0h2m2 0h1m1 0h4m1 0h2m4 0h7m1 0h4m2 0h3m2 0h1m1 0h1m3 0h2m1 0h1m3 0h2m1 0h1m2 0h3m1 0h2m1 0h1m3 0h1m1 0h2m1 0h1m1 0h1m5 0h4m1 0h1m1 0h1m2 0h1m1 0h1m-148 1h1m1 0h7m1 0h3m1 0h1m2 0h5m1 0h1m6 0h3m2 0h2m6 0h1m1 0h2m2 0h3m3 0h3m1 0h1m2 0h1m1 0h1m2 0h2m2 0h1m1 0h2m2 0h1m1 0h4m3 0h1m3 0h1m4 0h3m2 0h1m1 0h1m2 0h1m1 0h1m1 0h2m3 0h1m1 0h2m5 0h1m2 0h1m1 0h3m4 0h1m10 0h1m-148 1h1m2 0h1m1 0h1m2 0h5m2 0h3m3 0h1m1 0h1m2 0h3m6 0h2m2 0h1m1 0h1m3 0h1m4 0h1m3 0h1m1 0h3m3 0h1m1 0h1m4 0h3m2 0h3m1 0h4m1 0h3m2 0h4m1 0h1m1 0h1m1 0h1m1 0h1m2 0h1m1 0h1m4 0h1m1 0h3m2 0h3m1 0h1m1 0h5m1 0h3m2 0h1m1 0h1m1 0h3m4 0h1m3 0h1m-148 1h2m3 0h1m2 0h1m1 0h2m1 0h1m1 0h3m1 0h2m1 0h3m2 0h4m1 0h1m1 0h1m1 0h1m1 0h6m4 0h1m1 0h1m1 0h6m3 0h2m3 0h1m1 0h1m2 0h1m1 0h2m1 0h1m2 0h3m1 0h1m1 0h2m1 0h1m2 0h1m1 0h2m2 0h1m2 0h1m4 0h1m4 0h3m1 0h1m1 0h1m2 0h3m2 0h1m8 0h4m2 0h2m1 0h4m-145 1h3m2 0h3m5 0h1m4 0h1m1 0h1m1 0h1m1 0h2m1 0h2m4 0h5m1 0h3m2 0h3m3 0h1m1 0h2m1 0h4m2 0h9m2 0h3m1 0h2m1 0h1m4 0h5m1 0h4m1 0h2m1 0h1m2 0h1m2 0h1m4 0h1m1 0h2m3 0h2m3 0h2m1 0h4m4 0h1m1 0h2m3 0h1m1 0h1m3 0h2m-148 1h2m2 0h2m2 0h1m5 0h2m1 0h2m1 0h1m1 0h4m1 0h1m1 0h2m3 0h5m5 0h2m2 0h1m1 0h4m1 0h1m2 0h2m2 0h1m2 0h1m5 0h1m2 0h1m4 0h2m2 0h1m1 0h3m2 0h1m2 0h1m1 0h1m2 0h1m3 0h1m2 0h1m1 0h2m1 0h1m2 0h4m1 0h2m1 0h1m4 0h1m1 0h1m1 0h1m2 0h1m3 0h1m3 0h2m2 0h1m-145 1h1m1 0h2m3 0h1m2 0h1m1 0h2m2 0h1m1 0h1m1 0h2m4 0h2m6 0h1m2 0h2m1 0h1m2 0h2m1 0h2m2 0h1m1 0h2m1 0h1m4 0h3m2 0h3m1 0h1m2 0h2m4 0h6m1 0h1m2 0h1m4 0h1m1 0h1m2 0h3m1 0h1m4 0h1m6 0h1m1 0h1m1 0h2m1 0h1m1 0h1m4 0h1m3 0h2m3 0h1m3 0h3m-146 1h1m2 0h1m1 0h4m2 0h2m3 0h4m5 0h1m3 0h1m2 0h1m2 0h1m1 0h1m1 0h5m1 0h1m1 0h3m2 0h1m1 0h5m2 0h2m1 0h1m3 0h3m2 0h2m1 0h3m3 0h1m2 0h1m3 0h1m1 0h1m6 0h1m3 0h1m1 0h1m5 0h2m1 0h1m1 0h1m2 0h1m1 0h2m1 0h1m1 0h3m1 0h2m7 0h1m1 0h1m2 0h2m3 0h1m-149 1h3m6 0h2m2 0h1m1 0h2m3 0h1m1 0h1m1 0h1m3 0h1m2 0h3m1 0h4m2 0h1m1 0h1m2 0h3m4 0h1m1 0h1m1 0h2m1 0h2m2 0h1m1 0h2m2 0h1m8 0h2m3 0h1m6 0h1m4 0h2m2 0h1m5 0h2m2 0h1m1 0h2m2 0h1m3 0h1m1 0h1m3 0h1m3 0h3m1 0h2m2 0h1m2 0h5m-145 1h1m1 0h1m2 0h3m1 0h3m10 0h1m5 0h1m1 0h1m3 0h1m4 0h1m4 0h2m1 0h1m4 0h2m1 0h2m5 0h2m3 0h2m2 0h1m2 0h3m2 0h1m3 0h2m2 0h1m1 0h2m1 0h4m1 0h2m3 0h1m4 0h1m3 0h1m2 0h1m1 0h1m1 0h1m4 0h1m3 0h2m1 0h1m2 0h3m3 0h2m3 0h2m-147 1h1m1 0h4m3 0h2m1 0h2m4 0h3m1 0h3m1 0h1m2 0h1m1 0h4m1 0h2m2 0h1m3 0h3m4 0h3m2 0h5m3 0h1m4 0h1m4 0h1m1 0h1m1 0h1m2 0h1m1 0h2m3 0h4m3 0h1m1 0h1m1 0h6m3 0h2m2 0h2m4 0h1m1 0h1m1 0h5m1 0h1m1 0h1m2 0h3m1 0h1m1 0h1m4 0h2m-143 1h2m1 0h3m1 0h1m3 0h2m1 0h3m2 0h2m2 0h2m1 0h2m5 0h1m3 0h6m2 0h2m1 0h5m5 0h1m2 0h2m1 0h4m4 0h2m4 0h2m1 0h2m7 0h1m1 0h2m1 0h2m1 0h1m2 0h1m1 0h1m1 0h5m1 0h5m1 0h3m1 0h2m4 0h2m2 0h2m1 0h4m1 0h3m2 0h1m-147 1h1m2 0h2m1 0h1m1 0h2m2 0h1m1 0h1m2 0h1m2 0h6m1 0h2m1 0h1m1 0h5m1 0h1m1 0h1m4 0h2m1 0h2m3 0h1m1 0h4m2 0h1m1 0h2m2 0h2m1 0h1m1 0h4m3 0h3m1 0h2m1 0h4m1 0h1m2 0h1m1 0h2m1 0h5m4 0h1m1 0h4m2 0h3m1 0h1m1 0h1m3 0h4m2 0h7m1 0h2m5 0h1m-147 1h1m1 0h1m1 0h1m2 0h4m2 0h2m1 0h2m2 0h2m1 0h1m10 0h1m1 0h3m1 0h3m4 0h1m1 0h1m2 0h3m3 0h5m1 0h1m1 0h1m3 0h1m2 0h2m1 0h1m2 0h1m1 0h3m3 0h3m2 0h4m1 0h1m6 0h3m2 0h1m2 0h1m2 0h3m4 0h1m1 0h2m1 0h3m2 0h3m1 0h2m2 0h3m2 0h1m-148 1h1m3 0h1m3 0h2m2 0h1m2 0h1m1 0h2m1 0h3m1 0h1m1 0h2m1 0h2m2 0h2m1 0h5m2 0h5m2 0h3m3 0h3m4 0h2m4 0h1m5 0h1m2 0h2m1 0h1m1 0h2m4 0h3m3 0h1m1 0h1m2 0h3m4 0h1m3 0h2m3 0h1m1 0h1m2 0h5m6 0h5m2 0h1m4 0h2m1 0h1m-148 1h11m1 0h1m1 0h1m2 0h2m2 0h1m1 0h3m2 0h1m1 0h1m1 0h1m2 0h1m3 0h1m1 0h2m1 0h1m2 0h1m1 0h1m1 0h1m1 0h3m2 0h1m1 0h3m1 0h1m3 0h1m1 0h1m3 0h1m1 0h2m1 0h1m1 0h6m2 0h4m1 0h3m2 0h1m4 0h2m1 0h5m1 0h1m2 0h2m4 0h1m1 0h1m2 0h1m2 0h3m1 0h4m1 0h1m1 0h5m-145 1h1m2 0h2m1 0h5m2 0h2m3 0h1m1 0h1m1 0h1m1 0h4m1 0h3m3 0h3m2 0h3m1 0h1m1 0h4m4 0h1m1 0h2m1 0h5m1 0h3m4 0h1m2 0h1m1 0h1m1 0h3m2 0h3m2 0h6m1 0h1m1 0h1m2 0h3m2 0h3m1 0h2m1 0h1m2 0h2m1 0h1m2 0h2m1 0h3m5 0h1m1 0h1m1 0h2m3 0h1m3 0h1m-148 1h3m1 0h5m2 0h2m1 0h3m2 0h1m1 0h1m1 0h4m1 0h3m1 0h3m2 0h1m4 0h1m6 0h1m2 0h1m1 0h6m2 0h3m1 0h1m1 0h2m5 0h2m1 0h1m1 0h1m1 0h1m2 0h3m1 0h3m1 0h1m2 0h2m3 0h3m3 0h6m1 0h1m1 0h2m4 0h3m1 0h1m1 0h5m1 0h3m1 0h3m2 0h1m2 0h1m-147 1h4m7 0h2m1 0h1m1 0h2m1 0h2m3 0h1m1 0h3m2 0h2m2 0h2m4 0h8m2 0h1m2 0h1m1 0h5m2 0h1m4 0h2m1 0h2m1 0h3m2 0h3m1 0h3m2 0h5m2 0h3m3 0h2m2 0h1m3 0h1m1 0h3m2 0h1m5 0h4m2 0h1m1 0h1m1 0h4m3 0h1m3 0h2m2 0h2m-148 1h1m3 0h2m2 0h2m1 0h4m1 0h1m4 0h2m4 0h1m1 0h2m3 0h1m1 0h1m1 0h2m1 0h1m4 0h1m5 0h2m2 0h2m3 0h1m1 0h1m7 0h1m1 0h1m1 0h1m1 0h1m3 0h1m3 0h1m2 0h2m2 0h3m1 0h1m1 0h1m4 0h1m1 0h1m1 0h1m1 0h3m1 0h5m2 0h1m1 0h2m1 0h1m2 0h2m5 0h1m1 0h2m3 0h5m-148 1h2m6 0h3m2 0h2m1 0h1m1 0h5m2 0h1m1 0h4m2 0h4m1 0h1m2 0h4m2 0h4m2 0h5m1 0h2m1 0h1m1 0h1m1 0h1m1 0h4m2 0h1m5 0h5m3 0h5m2 0h1m6 0h2m1 0h1m4 0h3m3 0h3m1 0h5m8 0h1m1 0h1m2 0h3m3 0h2m1 0h2m-148 1h1m1 0h5m1 0h2m3 0h4m1 0h1m1 0h1m4 0h3m1 0h1m4 0h2m2 0h1m2 0h1m1 0h1m2 0h1m1 0h4m1 0h4m4 0h3m3 0h3m1 0h1m1 0h2m3 0h1m1 0h2m1 0h1m1 0h2m5 0h6m2 0h1m1 0h1m2 0h3m2 0h1m2 0h2m1 0h1m1 0h1m4 0h1m1 0h1m1 0h2m1 0h1m3 0h2m3 0h1m-140 1h1m1 0h1m1 0h1m7 0h3m1 0h1m2 0h2m2 0h2m2 0h2m1 0h3m2 0h1m4 0h1m1 0h3m3 0h1m1 0h1m1 0h2m1 0h3m4 0h2m3 0h5m1 0h3m1 0h6m1 0h1m4 0h1m4 0h1m1 0h1m3 0h3m5 0h1m2 0h1m3 0h1m1 0h1m1 0h1m1 0h2m1 0h2m1 0h1m3 0h8m3 0h1m1 0h1m1 0h1m-148 1h3m1 0h6m8 0h2m2 0h12m2 0h2m3 0h4m2 0h3m3 0h2m1 0h5m1 0h4m5 0h1m1 0h2m2 0h1m1 0h1m1 0h2m1 0h6m4 0h2m1 0h1m6 0h1m1 0h1m1 0h10m6 0h4m2 0h1m1 0h1m3 0h2m2 0h5m1 0h1m1 0h1m-149 1h3m1 0h1m3 0h2m1 0h3m1 0h1m3 0h3m3 0h2m1 0h1m3 0h1m1 0h3m1 0h1m8 0h4m2 0h2m1 0h1m3 0h1m2 0h2m3 0h4m1 0h2m1 0h1m1 0h4m1 0h2m3 0h3m1 0h6m1 0h1m3 0h2m3 0h1m1 0h1m1 0h1m3 0h2m2 0h1m1 0h1m2 0h8m3 0h1m1 0h3m3 0h2m2 0h1m-148 1h4m1 0h1m1 0h1m1 0h1m1 0h1m1 0h2m1 0h1m4 0h1m2 0h1m2 0h1m1 0h1m1 0h2m7 0h2m2 0h1m2 0h3m4 0h2m1 0h1m1 0h1m2 0h4m5 0h1m2 0h1m1 0h2m1 0h2m1 0h2m1 0h1m1 0h1m1 0h2m1 0h1m1 0h3m7 0h4m2 0h2m1 0h1m1 0h4m4 0h1m1 0h1m1 0h2m1 0h1m2 0h1m3 0h1m1 0h1m1 0h1m1 0h2m-146 1h1m3 0h1m3 0h2m5 0h2m1 0h3m1 0h2m3 0h2m3 0h6m1 0h1m4 0h1m4 0h3m2 0h1m1 0h1m3 0h1m1 0h3m1 0h4m1 0h2m3 0h1m2 0h1m1 0h4m3 0h3m5 0h2m2 0h4m4 0h1m2 0h2m3 0h1m1 0h1m2 0h5m4 0h1m1 0h7m1 0h1m3 0h2m1 0h2m-149 1h3m1 0h6m1 0h2m3 0h1m1 0h1m1 0h1m1 0h1m1 0h3m1 0h5m2 0h3m1 0h1m1 0h2m2 0h1m2 0h2m3 0h2m1 0h8m1 0h1m2 0h1m1 0h2m2 0h2m3 0h3m2 0h6m1 0h1m2 0h3m2 0h2m1 0h2m1 0h1m2 0h3m1 0h7m5 0h6m1 0h3m4 0h7m2 0h1m-147 1h1m1 0h1m1 0h1m1 0h3m1 0h1m1 0h1m4 0h1m1 0h1m2 0h1m1 0h1m2 0h2m2 0h1m1 0h3m3 0h1m2 0h1m3 0h2m4 0h1m1 0h1m2 0h1m1 0h3m1 0h2m1 0h1m1 0h3m1 0h1m1 0h4m1 0h4m1 0h2m5 0h3m2 0h3m1 0h2m1 0h4m2 0h3m2 0h2m3 0h2m2 0h3m4 0h2m1 0h2m2 0h1m1 0h1m1 0h5m1 0h1m-148 1h1m1 0h1m2 0h5m1 0h2m2 0h3m1 0h3m2 0h1m4 0h4m4 0h3m2 0h5m1 0h1m1 0h2m2 0h6m2 0h4m1 0h1m1 0h1m2 0h1m3 0h2m1 0h1m3 0h1m2 0h1m3 0h1m3 0h2m1 0h1m4 0h1m1 0h4m5 0h1m2 0h1m4 0h1m3 0h1m1 0h4m4 0h1m3 0h1m1 0h1m1 0h2m-144 1h3m8 0h2m5 0h1m1 0h1m5 0h1m2 0h5m1 0h2m1 0h4m2 0h1m1 0h2m1 0h1m2 0h2m1 0h1m2 0h1m3 0h1m4 0h4m3 0h1m1 0h1m2 0h1m1 0h1m1 0h8m3 0h2m3 0h4m3 0h2m2 0h1m2 0h2m1 0h1m1 0h1m1 0h2m1 0h1m4 0h1m3 0h4m1 0h2m1 0h1m2 0h1m2 0h1m-149 1h2m1 0h5m1 0h3m2 0h2m2 0h2m2 0h3m2 0h5m1 0h1m5 0h1m1 0h2m6 0h1m1 0h1m1 0h6m2 0h2m1 0h3m1 0h3m1 0h1m1 0h1m2 0h1m1 0h2m1 0h1m1 0h2m1 0h2m2 0h1m2 0h1m1 0h1m1 0h5m2 0h3m1 0h3m7 0h2m1 0h1m1 0h1m2 0h3m1 0h1m1 0h2m1 0h1m1 0h1m1 0h1m3 0h1m1 0h2m-147 1h2m6 0h1m3 0h1m3 0h1m2 0h1m3 0h2m2 0h1m1 0h1m1 0h1m1 0h5m2 0h3m1 0h4m1 0h1m2 0h3m1 0h1m6 0h2m1 0h1m1 0h1m5 0h4m1 0h2m3 0h2m2 0h5m2 0h3m1 0h5m3 0h1m1 0h3m1 0h3m1 0h2m1 0h2m1 0h2m2 0h4m1 0h1m2 0h4m1 0h4m1 0h2m-148 1h3m3 0h3m2 0h1m3 0h1m2 0h1m1 0h9m1 0h1m3 0h1m1 0h2m2 0h1m2 0h1m2 0h2m3 0h1m2 0h2m1 0h3m1 0h1m1 0h1m1 0h2m6 0h1m1 0h1m1 0h1m4 0h1m1 0h2m3 0h3m1 0h4m1 0h1m3 0h1m4 0h3m4 0h1m2 0h3m2 0h1m1 0h1m3 0h2m10 0h2m3 0h1m-146 1h2m2 0h1m5 0h1m1 0h3m1 0h2m1 0h1m1 0h3m2 0h2m1 0h3m2 0h1m2 0h1m1 0h1m1 0h4m3 0h2m3 0h2m1 0h1m5 0h3m1 0h1m2 0h4m3 0h1m3 0h3m3 0h1m2 0h3m3 0h3m3 0h3m3 0h1m1 0h1m4 0h1m2 0h2m1 0h4m6 0h1m2 0h3m1 0h1m2 0h4m1 0h1m2 0h1m-149 1h1m1 0h1m1 0h4m2 0h1m3 0h4m1 0h3m1 0h1m2 0h1m1 0h2m6 0h1m3 0h3m2 0h1m2 0h1m4 0h2m1 0h2m1 0h1m2 0h2m3 0h4m1 0h2m1 0h1m1 0h2m3 0h1m1 0h2m3 0h2m2 0h1m3 0h3m1 0h1m4 0h4m1 0h3m1 0h5m4 0h2m1 0h1m2 0h2m2 0h2m1 0h2m5 0h1m1 0h2m-146 1h2m1 0h1m2 0h1m2 0h2m4 0h1m1 0h2m1 0h3m1 0h2m2 0h2m1 0h1m1 0h1m1 0h2m3 0h2m1 0h5m5 0h1m1 0h2m1 0h1m2 0h2m1 0h1m1 0h3m2 0h2m4 0h5m1 0h2m2 0h5m4 0h1m1 0h6m1 0h1m1 0h2m2 0h1m2 0h1m3 0h5m1 0h1m3 0h1m3 0h1m3 0h3m2 0h3m-146 1h3m3 0h1m2 0h1m1 0h1m1 0h3m1 0h2m3 0h2m1 0h4m5 0h1m3 0h1m2 0h2m1 0h2m1 0h4m1 0h1m1 0h4m3 0h1m1 0h1m1 0h1m5 0h6m1 0h1m2 0h2m1 0h2m3 0h2m3 0h4m1 0h1m1 0h1m1 0h1m2 0h1m1 0h1m1 0h1m2 0h2m2 0h3m2 0h1m1 0h1m2 0h1m1 0h1m5 0h2m3 0h3m1 0h2m-146 1h1m1 0h1m4 0h3m1 0h1m1 0h1m3 0h1m2 0h1m4 0h2m1 0h1m1 0h1m4 0h1m1 0h7m2 0h1m3 0h1m2 0h3m1 0h3m3 0h2m1 0h6m2 0h1m1 0h1m3 0h3m4 0h1m1 0h2m5 0h2m4 0h3m3 0h2m4 0h1m1 0h1m3 0h4m4 0h1m3 0h7m4 0h2m2 0h1m-148 1h2m3 0h2m1 0h1m1 0h3m3 0h2m5 0h2m1 0h1m1 0h2m1 0h2m4 0h1m1 0h1m2 0h1m4 0h3m2 0h1m1 0h1m2 0h8m2 0h2m2 0h1m1 0h3m1 0h1m4 0h1m4 0h1m1 0h1m2 0h1m1 0h1m4 0h3m3 0h2m2 0h2m2 0h1m2 0h1m1 0h3m1 0h6m1 0h2m1 0h1m2 0h2m2 0h3m2 0h1m1 0h1m-147 1h2m1 0h3m1 0h2m2 0h3m1 0h2m4 0h2m2 0h1m1 0h2m3 0h6m5 0h1m3 0h2m1 0h1m2 0h1m1 0h1m2 0h1m1 0h1m1 0h1m1 0h1m1 0h2m1 0h2m2 0h4m1 0h1m1 0h1m1 0h5m2 0h1m2 0h3m2 0h2m1 0h4m3 0h1m2 0h2m1 0h1m2 0h2m2 0h1m2 0h2m1 0h1m2 0h1m3 0h1m4 0h2m2 0h5m-144 1h4m2 0h1m1 0h2m1 0h6m1 0h3m2 0h3m2 0h4m2 0h1m1 0h1m2 0h1m1 0h1m2 0h1m6 0h3m1 0h2m1 0h1m1 0h2m3 0h3m1 0h4m1 0h2m2 0h2m1 0h4m5 0h4m2 0h1m1 0h1m1 0h1m4 0h2m7 0h3m2 0h1m4 0h3m5 0h2m4 0h1m-141 1h2m2 0h1m1 0h2m3 0h2m4 0h2m1 0h2m1 0h2m1 0h2m3 0h2m1 0h4m2 0h1m1 0h1m1 0h1m1 0h1m1 0h1m1 0h1m1 0h3m1 0h1m2 0h1m2 0h2m3 0h4m2 0h1m5 0h2m1 0h1m1 0h3m1 0h1m2 0h2m2 0h2m1 0h4m1 0h1m2 0h1m1 0h1m2 0h1m2 0h1m2 0h1m3 0h5m1 0h1m1 0h1m3 0h3m2 0h1m1 0h2m1 0h1m2 0h2m-148 1h2m2 0h3m6 0h1m4 0h3m2 0h1m3 0h2m1 0h1m1 0h1m1 0h1m1 0h1m2 0h4m1 0h1m5 0h2m1 0h6m1 0h1m1 0h1m1 0h1m3 0h2m1 0h1m1 0h2m1 0h1m1 0h4m2 0h1m2 0h1m1 0h1m3 0h2m3 0h4m2 0h1m1 0h1m1 0h2m2 0h1m3 0h3m1 0h2m2 0h1m2 0h1m3 0h1m4 0h1m1 0h1m3 0h1m1 0h4m-148 1h3m4 0h1m1 0h3m7 0h1m1 0h2m1 0h1m2 0h1m1 0h3m1 0h3m2 0h1m1 0h1m1 0h1m2 0h5m2 0h2m3 0h1m2 0h2m1 0h1m1 0h1m1 0h1m2 0h1m1 0h2m1 0h2m2 0h1m1 0h1m2 0h1m1 0h1m4 0h2m2 0h3m2 0h3m2 0h4m2 0h1m3 0h4m1 0h1m7 0h1m1 0h2m1 0h2m1 0h2m1 0h3m1 0h4m-148 1h1m3 0h1m1 0h3m2 0h3m1 0h1m1 0h2m2 0h1m2 0h1m2 0h1m3 0h1m1 0h4m1 0h3m1 0h1m2 0h2m2 0h2m1 0h1m2 0h2m4 0h1m1 0h2m2 0h1m7 0h1m2 0h1m3 0h1m3 0h1m1 0h1m1 0h2m1 0h4m1 0h1m2 0h1m1 0h1m1 0h1m1 0h5m1 0h2m2 0h1m1 0h2m1 0h1m1 0h1m3 0h4m4 0h1m7 0h1m-143 1h1m1 0h1m3 0h2m1 0h1m1 0h1m9 0h2m3 0h2m2 0h1m5 0h2m1 0h1m1 0h1m2 0h3m1 0h1m8 0h1m2 0h3m1 0h6m4 0h1m1 0h8m1 0h1m1 0h4m2 0h1m5 0h2m1 0h1m2 0h3m2 0h1m2 0h2m1 0h1m1 0h1m1 0h2m5 0h2m1 0h1m1 0h2m1 0h1m1 0h1m1 0h1m1 0h3m1 0h2m-149 1h2m1 0h1m2 0h1m1 0h2m1 0h4m1 0h1m3 0h3m1 0h1m2 0h5m3 0h1m1 0h1m1 0h7m2 0h2m1 0h4m2 0h1m1 0h1m1 0h1m2 0h2m1 0h2m1 0h1m3 0h1m4 0h1m5 0h1m2 0h2m3 0h1m1 0h2m1 0h1m3 0h1m7 0h2m1 0h2m4 0h1m2 0h1m1 0h2m4 0h1m1 0h1m1 0h2m1 0h4m2 0h1m1 0h1m1 0h2m-149 1h1m1 0h1m1 0h2m2 0h1m2 0h2m1 0h3m3 0h1m1 0h3m1 0h4m1 0h1m1 0h1m1 0h2m6 0h1m2 0h3m4 0h1m1 0h1m2 0h1m3 0h4m1 0h1m2 0h1m5 0h1m2 0h1m1 0h2m3 0h2m1 0h2m1 0h3m2 0h2m2 0h3m3 0h1m2 0h1m1 0h1m1 0h1m1 0h1m1 0h1m3 0h6m3 0h1m1 0h3m2 0h3m2 0h3m2 0h1m-147 1h3m1 0h2m1 0h3m1 0h2m2 0h1m1 0h2m1 0h2m3 0h2m4 0h1m3 0h1m6 0h1m1 0h3m1 0h3m1 0h3m3 0h4m1 0h1m6 0h2m1 0h2m3 0h2m2 0h3m1 0h1m4 0h4m1 0h1m2 0h1m1 0h1m1 0h1m2 0h1m2 0h1m5 0h1m5 0h2m1 0h4m1 0h1m2 0h1m1 0h1m4 0h1m2 0h2m-145 1h3m3 0h4m2 0h1m2 0h2m1 0h1m1 0h1m2 0h2m1 0h2m1 0h1m1 0h1m2 0h1m1 0h1m2 0h4m1 0h2m2 0h2m2 0h1m1 0h1m2 0h2m4 0h1m2 0h1m1 0h1m2 0h1m7 0h2m2 0h1m4 0h2m10 0h2m1 0h1m2 0h3m4 0h2m2 0h1m1 0h4m4 0h1m3 0h1m1 0h2m3 0h1m3 0h1m1 0h1m1 0h2m-148 1h1m3 0h2m2 0h1m1 0h3m1 0h1m1 0h3m1 0h1m2 0h2m1 0h6m2 0h2m2 0h1m1 0h3m3 0h2m3 0h11m2 0h11m1 0h2m4 0h7m3 0h7m1 0h1m2 0h1m2 0h1m1 0h1m1 0h6m3 0h1m4 0h1m2 0h10m1 0h6m2 0h2m-141 1h2m3 0h2m3 0h5m1 0h1m1 0h3m3 0h7m2 0h1m1 0h1m1 0h1m1 0h4m3 0h3m3 0h1m2 0h3m1 0h4m2 0h4m2 0h2m3 0h1m3 0h1m1 0h1m2 0h1m1 0h2m1 0h3m1 0h5m1 0h2m1 0h2m3 0h9m1 0h1m1 0h2m2 0h2m2 0h1m1 0h3m3 0h2m1 0h1m-148 1h7m1 0h4m3 0h1m1 0h1m3 0h1m1 0h1m1 0h1m1 0h2m1 0h1m1 0h2m3 0h1m2 0h1m1 0h1m1 0h6m1 0h4m1 0h1m1 0h1m1 0h1m1 0h1m2 0h2m1 0h3m1 0h4m2 0h1m1 0h2m1 0h2m1 0h1m1 0h4m3 0h2m1 0h1m2 0h1m3 0h4m2 0h2m1 0h1m1 0h3m7 0h2m1 0h1m1 0h2m2 0h2m2 0h2m1 0h1m1 0h2m-146 1h1m5 0h1m3 0h3m1 0h3m1 0h3m3 0h1m1 0h3m3 0h1m3 0h1m2 0h1m4 0h2m2 0h2m1 0h4m1 0h1m3 0h1m1 0h1m1 0h1m1 0h1m1 0h4m2 0h3m1 0h1m2 0h1m1 0h2m3 0h4m5 0h1m1 0h6m2 0h1m1 0h1m1 0h2m3 0h1m1 0h1m2 0h5m4 0h1m1 0h1m1 0h2m1 0h1m1 0h2m3 0h2m1 0h1m-148 1h1m1 0h3m1 0h1m1 0h6m1 0h1m4 0h1m2 0h4m1 0h5m2 0h1m3 0h4m1 0h2m1 0h2m4 0h2m1 0h7m1 0h2m1 0h1m1 0h2m2 0h5m4 0h1m1 0h5m2 0h1m2 0h1m3 0h3m1 0h2m2 0h3m1 0h1m1 0h5m3 0h1m2 0h1m1 0h2m1 0h1m1 0h3m2 0h3m2 0h5m-145 1h1m1 0h3m1 0h1m1 0h1m3 0h2m3 0h1m1 0h1m5 0h1m1 0h2m2 0h1m1 0h2m1 0h3m4 0h1m2 0h5m3 0h1m1 0h3m2 0h1m2 0h1m2 0h4m3 0h1m1 0h2m2 0h6m2 0h2m1 0h4m1 0h5m2 0h3m2 0h2m1 0h4m1 0h1m1 0h1m6 0h2m1 0h1m1 0h1m1 0h1m1 0h3m3 0h2m2 0h1m2 0h1m-148 1h1m1 0h3m1 0h1m1 0h1m5 0h2m1 0h1m4 0h1m2 0h2m4 0h1m3 0h4m1 0h3m1 0h1m2 0h2m1 0h1m1 0h1m1 0h1m6 0h3m4 0h1m1 0h1m3 0h3m1 0h1m1 0h2m1 0h2m1 0h2m1 0h1m3 0h5m4 0h1m2 0h1m1 0h2m2 0h1m1 0h1m1 0h1m1 0h4m1 0h1m1 0h1m2 0h1m1 0h1m4 0h1m7 0h6m-148 1h1m5 0h1m1 0h1m1 0h5m2 0h3m2 0h3m3 0h1m2 0h1m4 0h5m5 0h6m1 0h1m1 0h1m1 0h2m1 0h2m4 0h1m1 0h5m3 0h1m4 0h2m6 0h2m1 0h1m2 0h1m1 0h1m2 0h3m1 0h1m2 0h1m1 0h1m2 0h2m3 0h2m1 0h2m1 0h3m3 0h2m3 0h5m2 0h1m1 0h3m1 0h1m-148 1h7m1 0h1m2 0h1m3 0h1m1 0h3m1 0h1m2 0h1m3 0h3m1 0h1m3 0h2m1 0h1m1 0h2m5 0h2m1 0h4m3 0h3m1 0h4m4 0h1m2 0h5m1 0h1m2 0h3m1 0h1m2 0h1m3 0h1m4 0h1m1 0h1m2 0h3m1 0h2m5 0h2m1 0h2m1 0h2m1 0h1m1 0h1m1 0h1m1 0h3m1 0h2m1 0h1m2 0h1m2 0h1m2 0h1"/></svg>
